<svg xmlns="http://www.w3.org/2000/svg" width="220" height="28" viewBox="0 0 220 28" fill="none">
<path d="M216.176 8.15039H216.549L217.426 9.93672L218.294 8.15039H218.669L218.802 10.7221H218.471L218.379 8.62301L217.573 10.2774H217.277L216.465 8.62301L216.373 10.7221H216.048L216.176 8.15039ZM214.361 8.45608H213.521V8.15039H215.547V8.45608H214.713V10.7221H214.361V8.45608Z" fill="currentColor"/>
<path d="M37.2328 15.524C37.1361 14.577 36.8053 13.8301 36.2395 13.285C35.6735 12.7404 34.945 12.4675 34.055 12.4675C32.2248 12.4675 31.1057 13.4866 30.6966 15.524H37.2328ZM35.6433 27.4654C33.3809 27.4654 31.4065 27.0805 29.7217 26.31C28.0369 25.5406 26.7305 24.4271 25.8037 22.9696C24.8768 21.5125 24.4136 19.7655 24.4136 17.7273C24.4136 15.8796 24.8108 14.2214 25.6056 12.7518C26.3992 11.2833 27.5372 10.1219 29.0175 9.26943C30.498 8.41587 32.2132 7.98926 34.163 7.98926C36.9557 7.98926 39.1764 8.81287 40.8258 10.4598C42.4743 12.1065 43.2992 14.3394 43.2992 17.1588C43.2992 17.9888 43.227 18.7225 43.0828 19.3624H30.8053C31.142 20.4285 31.7736 21.2168 32.7007 21.7262C33.6273 22.2359 34.8975 22.4902 36.5106 22.4902C37.5453 22.4902 38.5922 22.3836 39.6519 22.1703C40.7112 21.9566 41.6498 21.6609 42.4688 21.2818L43.0462 26.0796C42.059 26.5304 40.9217 26.8739 39.6342 27.11C38.3458 27.3473 37.0158 27.4654 35.6433 27.4654Z" fill="currentColor"/>
<path d="M56.9118 27.3947C54.8895 27.3947 53.1018 27.0091 51.5489 26.2397C49.9967 25.4696 48.7809 24.3625 47.9024 22.9167C47.0235 21.4715 46.584 19.7654 46.584 17.7986C46.584 15.9506 47.0054 14.2926 47.848 12.8231C48.6906 11.3539 49.8938 10.1933 51.4594 9.33962C53.0235 8.48715 54.8293 8.06055 56.8758 8.06055C58.0065 8.06055 59.1622 8.1911 60.3419 8.45184C61.5211 8.71258 62.4963 9.04431 63.2664 9.44705L62.5087 14.8131C60.9681 14.1022 59.367 13.7469 57.7061 13.7469C56.2615 13.7469 55.1243 14.1022 54.2934 14.8131C53.4631 15.524 53.0481 16.496 53.0481 17.7272C53.0481 18.9839 53.4686 19.9609 54.3119 20.6599C55.154 21.3587 56.3214 21.708 57.8144 21.708C59.3307 21.708 60.9681 21.353 62.725 20.6421L63.3755 25.8666C62.5322 26.3403 61.5392 26.7133 60.3962 26.9859C59.2525 27.258 58.0909 27.3947 56.9118 27.3947Z" fill="currentColor"/>
<path d="M152.29 8.55811H158.61L158.683 12.2698C158.893 11.6267 160.253 8.29915 165.372 8.58843L165.34 13.7266C161.909 13.1137 158.808 15.6149 158.79 19.0424V26.8971H152.29V8.55811Z" fill="currentColor"/>
<path d="M66.7827 8.55811H73.1019L73.174 12.2698C73.3849 11.6267 74.745 8.29915 79.8636 8.58843L79.831 13.7266C76.4009 13.1137 73.3001 15.6149 73.2824 19.0424V26.8971H66.7827V8.55811Z" fill="currentColor"/>
<path d="M92.2981 27.4652C89.3612 27.4652 87.1219 26.7312 85.582 25.2624C84.0408 23.7931 83.271 21.6491 83.271 18.8297V8.55811H89.7708V18.6518C89.7708 19.7175 89.9751 20.5058 90.3843 21.0152C90.7934 21.5249 91.4432 21.7789 92.3343 21.7789C93.1766 21.7789 93.797 21.5306 94.1938 21.0331C94.5907 20.5351 94.7892 19.7414 94.7892 18.6518V8.55811H101.289V18.8297C101.289 21.6726 100.525 23.8227 98.9963 25.2798C97.4676 26.7369 95.2354 27.4652 92.2981 27.4652Z" fill="currentColor"/>
<path d="M112.05 8.55811H105.55V26.8971H112.05V8.55811Z" fill="currentColor"/>
<path d="M118.152 13.7118H115.011V8.5583H118.152V3.83105H124.652V8.5583H128.479V13.7118H124.652V26.8972H118.152V13.7118Z" fill="currentColor"/>
<path d="M143.067 15.524C142.971 14.577 142.64 13.8301 142.074 13.285C141.508 12.7404 140.78 12.4675 139.891 12.4675C138.06 12.4675 136.941 13.4866 136.532 15.524H143.067ZM141.479 27.4654C139.216 27.4654 137.241 27.0805 135.557 26.31C133.872 25.5406 132.565 24.4271 131.639 22.9696C130.712 21.5125 130.249 19.7655 130.249 17.7273C130.249 15.8796 130.646 14.2214 131.441 12.7518C132.234 11.2833 133.372 10.1219 134.852 9.26943C136.334 8.41587 138.048 7.98926 139.999 7.98926C142.791 7.98926 145.011 8.81287 146.66 10.4598C148.308 12.1065 149.133 14.3394 149.133 17.1588C149.133 17.9888 149.062 18.7225 148.917 19.3624H136.64C136.977 20.4285 137.609 21.2168 138.536 21.7262C139.462 22.2359 140.732 22.4902 142.345 22.4902C143.38 22.4902 144.427 22.3836 145.487 22.1703C146.546 21.9566 147.484 21.6609 148.303 21.2818L148.881 26.0796C147.894 26.5304 146.756 26.8739 145.468 27.11C144.181 27.3473 142.851 27.4654 141.479 27.4654Z" fill="currentColor"/>
<path d="M111.738 0.179199H105.862V6.25651H111.738V0.179199Z" fill="currentColor"/>
<path d="M16.4658 16.4677C17.7897 15.7101 18.813 14.6964 19.535 13.4291C20.2572 12.1618 20.6182 10.781 20.6182 9.2886C20.6182 6.44505 19.673 4.21215 17.7838 2.58956C15.8935 0.966614 13.2635 0.154785 9.89393 0.154785H0V13.0527C2.56871 10.1993 7.01937 8.50708 7.91741 8.20425C7.86921 7.04928 6.7878 4.11513 6.7878 4.11513L14.3943 9.45483L6.76895 15.2653C6.76895 15.2653 7.68655 13.6766 7.9203 10.9929C7.91922 11.005 3.68237 11.9631 0 15.8171V27.1653H6.93312V18.4577L10.5437 18.4224L15.3466 27.1653H23.2901L16.4658 16.4677Z" fill="currentColor"/>
<path d="M176.5 27.1421C175.229 27.1421 174.096 26.8832 173.101 26.3649C172.106 25.8463 171.324 25.1058 170.756 24.1431C170.188 23.1804 169.904 22.0571 169.904 20.7734C169.904 19.5724 170.171 18.4863 170.706 17.5151C171.241 16.5445 172.006 15.7748 173.001 15.2072C173.995 14.6394 175.137 14.3555 176.425 14.3555C177.913 14.3555 179.159 14.6515 180.161 15.244L179.935 16.5028C179.434 16.2231 178.878 16.0094 178.268 15.8614C177.658 15.713 177.043 15.6388 176.425 15.6388C175.455 15.6388 174.594 15.845 173.841 16.2559C173.089 16.6675 172.495 17.26 172.061 18.0333C171.626 18.807 171.408 19.704 171.408 20.7239C171.408 22.2712 171.876 23.5135 172.813 24.4516C173.749 25.3893 174.995 25.8588 176.55 25.8588C177.854 25.8588 179.091 25.5463 180.262 24.9207L180.438 26.1302C179.935 26.4431 179.334 26.6898 178.631 26.8707C177.93 27.0519 177.219 27.1421 176.5 27.1421Z" fill="currentColor"/>
<path d="M187.686 25.8832C188.572 25.8832 189.382 25.6731 190.119 25.2539C190.854 24.8341 191.439 24.2291 191.874 23.4394C192.31 22.6494 192.527 21.7444 192.527 20.7236C192.527 19.7699 192.329 18.9059 191.937 18.1319C191.544 17.3586 190.98 16.7415 190.244 16.2803C189.508 15.8198 188.655 15.5894 187.686 15.5894C186.799 15.5894 185.988 15.7991 185.253 16.2186C184.518 16.6384 183.932 17.2433 183.497 18.0331C183.063 18.8232 182.845 19.7281 182.845 20.7486C182.845 21.7031 183.042 22.567 183.435 23.3403C183.827 24.1143 184.392 24.7314 185.127 25.1919C185.863 25.6531 186.716 25.8832 187.686 25.8832ZM187.686 27.1669C186.516 27.1669 185.453 26.899 184.5 26.3647C183.547 25.83 182.782 25.0728 182.206 24.0936C181.629 23.1146 181.341 21.9995 181.341 20.7486C181.341 19.5968 181.607 18.5356 182.143 17.564C182.678 16.5932 183.431 15.8077 184.4 15.207C185.37 14.606 186.465 14.3057 187.686 14.3057C188.856 14.3057 189.918 14.5732 190.871 15.1079C191.824 15.6429 192.589 16.4002 193.166 17.3789C193.743 18.358 194.032 19.4734 194.032 20.7236C194.032 21.8761 193.763 22.9372 193.228 23.9082C192.694 24.8798 191.942 25.6653 190.972 26.2656C190.001 26.8662 188.906 27.1669 187.686 27.1669Z" fill="currentColor"/>
<path d="M196.313 14.7008H197.668L197.693 16.7743C198.11 16.0007 198.696 15.3961 199.449 14.9598C200.201 14.524 201.045 14.3057 201.982 14.3057C202.985 14.3057 203.838 14.5528 204.54 15.0462C205.242 15.5398 205.744 16.2557 206.044 17.1938C206.412 16.2892 206.998 15.5812 207.8 15.0711C208.603 14.561 209.531 14.3057 210.584 14.3057C212.005 14.3057 213.104 14.7587 213.883 15.6636C214.659 16.5685 215.048 17.844 215.048 19.4895V26.7716H213.593V19.7117C213.593 16.9633 212.491 15.5894 210.283 15.5894C209.096 15.5894 208.151 16.0092 207.449 16.8482C206.747 17.6878 206.396 18.815 206.396 20.2303V26.7716H204.941V19.7117C204.941 16.9633 203.846 15.5894 201.656 15.5894C200.468 15.5894 199.524 16.0053 198.821 16.836C198.119 17.6672 197.768 18.7903 197.768 20.2054V26.7716H196.313V14.7008Z" fill="currentColor"/>
<path d="M167.969 24.978H165.781V27.1319H167.969V24.978Z" fill="currentColor"/>
</svg>