<svg xmlns="http://www.w3.org/2000/svg" viewBox="0 0 200 37.75" width="210px" height="38px"><defs><style>.cls-1{fill:currentColor;}.cls-2{fill:currentColor;}</style></defs><g id="Warstwa_2" data-name="Warstwa 2"><g id="horizontal"><path class="cls-1" d="M11,31.93c-.23,0-.86.11-2.33.11-4.28,0-5.71-1.92-5.71-6.24v-6H0l.94-3.68h2V12.77l4.85-1v4.36h3.68v3.68H7.78v6.09c0,1.65.3,2.25,1.35,2.4a16.29,16.29,0,0,0,2.74-.07Z"/><path class="cls-1" d="M21.77,15.85a11.57,11.57,0,0,1,7.74,2.78V31.85H24.74V29.07a5.07,5.07,0,0,1-4.59,3c-4.17,0-6.72-3.15-6.72-7.85S16.4,15.85,21.77,15.85Zm-.38,12.32c2,0,3.35-2,3.35-5.75V20.35A5.17,5.17,0,0,0,22,19.64c-2.44,0-3.65,2.1-3.65,4.55C18.31,26.4,19.18,28.17,21.39,28.17Z"/><path class="cls-1" d="M32.47,31.85V9.2l4.81-1V31.85Z"/><path class="cls-1" d="M44.46,25.13c.19,2.17,2,3.19,4.17,3.19a6.35,6.35,0,0,0,4.09-1.39l2.07,3.31a10.67,10.67,0,0,1-6.31,1.84c-5.37,0-8.72-3.16-8.72-8.12s3.38-8.15,7.89-8.15a7.11,7.11,0,0,1,7.44,7.47A17.57,17.57,0,0,1,55,25.13Zm.07-3.35H51a3,3,0,0,0-3.16-2.7A3.32,3.32,0,0,0,44.53,21.78Z"/><path class="cls-1" d="M68.49,31.85V23.28c0-2.29-.72-3.53-2.56-3.53s-3,1.81-3,4.74v7.36H58.12V16.11h4.81V18.7a5.53,5.53,0,0,1,4.69-2.85c3.84,0,5.75,2.25,5.75,7.1v8.9Z"/><path class="cls-1" d="M86.13,31.93c-.22,0-.86.11-2.33.11-4.28,0-5.71-1.92-5.71-6.24v-6H75.16l.94-3.68h2V12.77l4.85-1v4.36h3.68v3.68H82.94v6.09c0,1.65.3,2.25,1.35,2.4A16.26,16.26,0,0,0,87,28.21Z"/><path class="cls-1" d="M105.69,23.7c0,4.58-2.66,8.34-7.4,8.34a10.73,10.73,0,0,1-3.83-.79v5.48l-4.77,1s0-5.79,0-21.64h4.73v2.74a5,5,0,0,1,4.59-3C103.21,15.85,105.69,19,105.69,23.7Zm-7.92-3.91c-2,0-3.35,1.95-3.35,5.71v1.95a5.83,5.83,0,0,0,2.9.83c2.36,0,3.53-2.07,3.53-4.51C100.85,21.56,100,19.79,97.77,19.79Z"/><path class="cls-1" d="M108.25,31.85V9.2l4.8-1V31.85Z"/><path class="cls-1" d="M124.14,15.85a11.53,11.53,0,0,1,7.73,2.78V31.85H127.1V29.07a5,5,0,0,1-4.58,3c-4.17,0-6.72-3.15-6.72-7.85S118.76,15.85,124.14,15.85Zm-.38,12.32c2,0,3.34-2,3.34-5.75V20.35a5.11,5.11,0,0,0-2.78-.71c-2.44,0-3.64,2.1-3.64,4.55C120.68,26.4,121.54,28.17,123.76,28.17Z"/><path class="cls-1" d="M134.62,24c0-5.33,3.6-8.15,8.41-8.15a11,11,0,0,1,5.07,1.09l-.41,3.79a8.18,8.18,0,0,0-4.06-1.12,4,4,0,0,0-4.28,4.32,4,4,0,0,0,4.21,4.35,6.17,6.17,0,0,0,3.72-1.31l1.87,3.34a10.6,10.6,0,0,1-6.08,1.88C138.11,32.15,134.62,29.26,134.62,24Z"/><path class="cls-1" d="M155,25.13c.19,2.17,2,3.19,4.18,3.19a6.35,6.35,0,0,0,4.09-1.39l2.07,3.31A10.69,10.69,0,0,1,159,32.08c-5.38,0-8.72-3.16-8.72-8.12s3.38-8.15,7.89-8.15a7.11,7.11,0,0,1,7.44,7.47,16.13,16.13,0,0,1-.12,1.85Zm.08-3.35h6.42a3,3,0,0,0-3.15-2.7A3.32,3.32,0,0,0,155.06,21.78Z"/><path class="cls-2" d="M192.46,1.23a13.05,13.05,0,0,0-17.35,6.31c-4,8.47,1.18,23,3.24,24S194.84,27,198.77,18.57A13,13,0,0,0,192.46,1.23Zm1.4,15.42a7.86,7.86,0,1,1-3.8-10.45A7.87,7.87,0,0,1,193.86,16.65Z"/><path class="cls-2" d="M186.7,8l1.61,2.53a.31.31,0,0,0,.23.14l3,.1a.29.29,0,0,1,.21.47l-1.91,2.32a.3.3,0,0,0-.06.26l.83,2.89a.29.29,0,0,1-.38.35l-2.8-1.1a.27.27,0,0,0-.26,0l-2.49,1.68a.29.29,0,0,1-.45-.25l.18-3a.25.25,0,0,0-.11-.24L182,12.28a.29.29,0,0,1,.1-.51L185,11a.3.3,0,0,0,.2-.18l1-2.82A.29.29,0,0,1,186.7,8Z"/></g></g></svg>