<svg xmlns="http://www.w3.org/2000/svg" version="1.1" xmlns:xlink="http://www.w3.org/1999/xlink" width="512" height="512" x="0" y="0" viewBox="0 0 24 24" style="enable-background:new 0 0 512 512" xml:space="preserve" class=""><g transform="matrix(1.2000000000000002,0,0,1.2000000000000002,-2.4973412036895777,-2.4026588439941428)"><path d="M22 6a2 2 0 1 1-2-2 2 2 0 0 1 2 2zm-1 3.73V17a2.652 2.652 0 0 1-3 3H6a2.652 2.652 0 0 1-3-3V8a2.652 2.652 0 0 1 3-3h10.268a.3.3 0 0 1 .29.37 3.465 3.465 0 0 0-.05.86 3.523 3.523 0 0 0 3.27 3.26 3.385 3.385 0 0 0 .85-.05.308.308 0 0 1 .372.29zm-3.412-.2a.752.752 0 0 0-1.055-.117l-4.375 3.5a.252.252 0 0 1-.312 0l-4.375-3.5a.751.751 0 0 0-.938 1.172l4.375 3.5a1.743 1.743 0 0 0 2.188 0l4.375-3.5a.751.751 0 0 0 .115-1.054z" fill="#000000" opacity="1" data-original="#000000" class=""></path></g></svg>